<?xml version="1.0" encoding="UTF-8"?>
<svg enable-background="new 0 0 3349.17 550.74" slot="logo-app" version="1.1" viewBox="0 0 527.2 535.54" xmlns="http://www.w3.org/2000/svg"><linearGradient id="a" x1="69.095" x2="458.11" y1="525.84" y2="136.83" gradientUnits="userSpaceOnUse"><stop stop-color="#24326a" offset="0"/><stop stop-color="#283369" offset=".0611"/><stop stop-color="#333567" offset=".1228"/><stop stop-color="#453864" offset=".1848"/><stop stop-color="#5b3d5f" offset=".2471"/><stop stop-color="#764459" offset=".3095"/><stop stop-color="#964e4e" offset=".3721"/><stop stop-color="#bf5b3c" offset=".4336"/><stop stop-color="#ed6b23" offset=".4872"/><stop stop-color="#9c9c9c" offset="1"/></linearGradient><path d="m400.06 225.77v-146.99l-136.46-78.78-136.46 78.78v146.99l-127.14 73.41v157.57l136.46 78.79 127.14-73.41 127.14 73.41 136.46-78.79v-157.57zm-136.46 67.86-108.52-62.65 108.52-62.66 108.52 62.66zm-117.83-46.35 108.52 62.65v125.13l-108.52-62.65zm127.14 62.65 108.52-62.65v125.13l-108.52 62.65zm-127.14-220.39 117.83-68.04 117.83 68.03v125.31l-117.83-68.02-117.83 68.03zm-127.14 356.45v-136.06l108.52-62.65v135.89l117.98 68.12-108.67 62.74zm489.95 0-117.83 68.03-108.67-62.74 117.98-68.12v-135.89l108.52 62.65z" fill="url(#a)"/></svg>
